<?xml version="1.0" standalone="no"?>
<!DOCTYPE svg PUBLIC "-//W3C//DTD SVG 20010904//EN"
 "http://www.w3.org/TR/2001/REC-SVG-20010904/DTD/svg10.dtd">
<svg version="1.0" xmlns="http://www.w3.org/2000/svg"
 width="1024.000000pt" height="1024.000000pt" viewBox="0 0 1024.000000 1024.000000"
 preserveAspectRatio="xMidYMid meet">
<metadata>
Created by potrace 1.14, written by Peter Selinger 2001-2017
</metadata>
<g transform="translate(0.000000,1024.000000) scale(0.100000,-0.100000)"
fill="#000000" stroke="none">
<path d="M4731 9061 c-44 -86 -64 -241 -46 -360 9 -64 41 -144 80 -200 l34
-49 -27 -5 c-275 -52 -656 -232 -887 -419 -121 -98 -167 -139 -268 -239 l-119
-117 -221 -6 c-207 -5 -248 -8 -352 -22 -22 -3 -58 -8 -80 -11 -80 -10 -322
-63 -383 -83 -222 -73 -356 -195 -406 -371 -9 -31 -22 -56 -29 -56 -48 -2
-163 -27 -183 -40 -28 -19 -37 -62 -40 -188 -6 -229 33 -339 141 -406 35 -21
52 -24 132 -24 l92 0 10 -40 c13 -48 28 -139 36 -215 3 -30 8 -71 10 -90 3
-19 7 -51 9 -70 9 -72 25 -158 37 -201 7 -24 13 -46 14 -49 29 -106 67 -195
114 -270 l29 -45 -14 -120 c-8 -66 -15 -133 -17 -150 -3 -30 -6 -32 -167 -153
-14 -10 -116 -80 -227 -155 -334 -225 -564 -415 -642 -530 -85 -125 -93 -272
-24 -414 93 -189 307 -233 638 -132 113 35 233 83 349 141 81 39 95 39 96 -3
0 -23 54 -233 85 -329 77 -241 213 -496 366 -690 70 -89 225 -244 323 -324
223 -181 518 -336 831 -436 72 -23 148 -48 170 -55 35 -11 20 -12 -125 -9 -91
2 -205 6 -255 9 -205 12 -282 17 -325 21 -25 2 -104 6 -176 9 -150 5 -190 -5
-249 -63 -150 -150 -57 -433 146 -443 40 -2 267 9 359 17 218 18 643 34 659
24 5 -3 1 -48 -9 -100 -19 -108 -18 -156 6 -218 26 -70 115 -124 207 -128 77
-3 112 10 163 62 l42 44 6 -45 c21 -135 130 -195 299 -162 76 15 132 84 142
173 9 94 21 128 23 69 6 -160 193 -255 337 -171 51 30 84 79 101 150 7 28 13
45 13 38 2 -23 33 -85 55 -110 71 -80 256 -64 340 28 35 39 50 83 49 150 0 57
-14 224 -19 232 -3 4 1 8 8 8 125 3 400 16 538 25 36 3 107 7 158 10 52 3 110
8 130 10 21 2 75 6 121 10 47 4 92 8 100 10 9 1 48 6 86 9 70 7 114 12 170 21
17 3 48 7 70 10 22 3 54 7 70 10 17 3 48 7 70 10 76 12 100 16 170 30 39 8 86
17 105 20 19 3 80 17 135 31 109 28 127 33 165 40 14 3 59 13 100 24 135 34
384 92 413 96 84 11 121 29 129 62 7 25 -39 110 -73 134 -32 24 -57 25 -158 3
-9 -2 -32 -7 -51 -11 l-34 -7 32 34 c42 45 88 133 102 194 26 117 24 282 -4
320 -44 61 -321 -32 -440 -146 l-58 -57 -57 57 c-61 62 -139 104 -220 119 -63
11 -82 0 -101 -60 -26 -79 -27 -142 -6 -232 23 -98 66 -182 130 -252 l55 -61
-122 -17 c-67 -10 -134 -19 -148 -22 -15 -2 -47 -6 -70 -9 -24 -3 -60 -7 -79
-10 -98 -12 -200 -25 -245 -29 -27 -3 -75 -8 -105 -11 -222 -24 -378 -30 -765
-28 -214 0 -389 4 -388 9 1 5 37 16 80 26 183 42 419 115 533 165 596 260 966
627 1218 1208 58 134 149 435 168 555 3 19 7 36 9 38 2 2 39 -15 83 -37 296
-149 566 -215 717 -176 104 28 169 83 220 189 53 110 49 181 -16 325 -56 122
-260 299 -644 556 -301 201 -294 195 -300 270 -13 155 -17 191 -20 205 -2 8
-7 40 -10 70 -3 30 -8 62 -10 70 -2 8 -7 31 -10 50 -3 19 -10 52 -16 72 -8 31
-5 51 16 113 28 83 69 283 80 385 4 36 8 67 10 70 1 3 6 34 9 70 4 36 10 89
14 119 l7 55 75 1 c196 5 287 129 291 397 3 161 -16 223 -70 238 -36 9 -151
26 -162 23 -3 -1 -11 19 -17 45 -41 179 -169 309 -367 377 -127 43 -339 86
-495 101 -30 2 -76 7 -101 9 -26 3 -95 8 -155 11 l-108 7 -90 91 c-172 173
-318 290 -497 401 -269 166 -592 283 -861 311 -56 6 -114 23 -81 24 21 0 72
80 88 134 23 80 26 155 9 209 -9 27 -23 51 -31 54 -38 15 -206 -62 -269 -124
l-45 -43 -10 28 c-33 84 -69 141 -131 202 -73 73 -169 128 -236 137 -39 5 -41
4 -61 -36z m1969 -1755 c186 -5 321 -12 420 -20 50 -5 87 -11 195 -31 128 -25
246 -89 293 -160 84 -126 100 -364 46 -650 -9 -44 -18 -91 -20 -105 -25 -130
-118 -434 -171 -560 -120 -281 -202 -351 -448 -379 -76 -9 -577 -7 -640 2 -16
2 -63 8 -104 12 -93 9 -239 45 -312 78 -103 45 -146 100 -189 241 -32 102 -62
237 -75 331 -5 39 -8 58 -20 115 -2 14 -7 50 -10 80 -3 30 -7 66 -10 80 -19
106 -26 356 -14 445 14 96 19 117 44 179 50 123 134 211 260 271 109 52 181
67 355 72 85 2 160 6 165 7 6 2 17 1 25 0 8 -2 103 -5 210 -8z m-2600 -7 c279
-52 453 -208 494 -444 14 -76 16 -457 3 -510 -2 -11 -8 -47 -12 -80 -4 -32 -8
-67 -10 -76 -2 -9 -6 -34 -9 -55 -3 -22 -8 -50 -11 -64 -3 -14 -7 -36 -10 -50
-30 -157 -94 -348 -142 -421 -40 -60 -110 -103 -228 -137 -81 -24 -135 -33
-295 -51 -83 -10 -636 -6 -715 4 -86 11 -164 34 -199 58 -56 38 -115 116 -166
222 -38 79 -90 214 -95 245 0 3 -8 30 -17 60 -37 119 -70 268 -97 430 -6 36
-14 79 -17 95 -3 17 -7 104 -9 195 -6 272 30 375 157 456 97 62 312 108 555
120 76 3 139 7 141 9 9 8 635 2 682 -6z m1129 -1070 c51 -29 72 -61 113 -164
44 -110 102 -311 95 -329 -3 -7 -17 -16 -32 -20 -43 -11 -95 -49 -183 -135
-46 -45 -86 -80 -90 -78 -4 2 -45 27 -92 55 -102 60 -184 89 -261 91 l-27 1
15 43 c14 40 59 200 68 241 36 163 124 298 202 311 21 4 43 8 48 9 28 8 112
-7 144 -25z"/>
<path d="M6345 6651 c-80 -21 -153 -85 -181 -157 -24 -64 -15 -166 19 -221 87
-138 287 -167 400 -59 88 85 99 251 23 351 -54 71 -172 110 -261 86z"/>
<path d="M3776 6652 c-28 -6 -87 -45 -117 -78 -70 -78 -81 -211 -24 -309 105
-181 394 -145 460 58 63 193 -111 372 -319 329z"/>
<path d="M3575 8659 c-109 -26 -256 -74 -310 -101 -135 -68 -205 -124 -205
-164 0 -28 18 -35 77 -26 26 4 98 7 158 6 130 0 154 -4 385 -56 181 -40 177
-40 243 -41 113 -2 155 64 134 211 -7 44 -15 61 -50 95 -59 60 -122 79 -272
83 -66 2 -138 -1 -160 -7z"/>
<path d="M6520 8648 c-59 -10 -98 -26 -138 -55 -89 -66 -99 -225 -17 -279 41
-27 94 -27 225 0 69 15 139 29 155 32 17 2 37 7 45 9 64 18 285 25 372 12 41
-7 47 -5 53 12 14 45 -30 85 -171 157 -60 31 -116 57 -124 60 -8 2 -53 15
-100 30 -91 27 -219 37 -300 22z"/>
</g>
</svg>
